<svg height="166" viewBox="0 0 250 166" width="250" xmlns="http://www.w3.org/2000/svg"><g fill="none" fill-rule="evenodd"><path d="m0 0h250v166h-250z" fill="#e6ecfe"/><g fill-rule="nonzero" transform="translate(58)"><path d="m162.446024 95.8393727-142.446024 19.1606273v-94h169z" fill="#387ed1"/><path d="m110 49h-77v-17h77zm-76.5470591-.441558h76.0941181v-16.1168784h-76.0941181z" fill="#3f3d56"/><path d="m39 37h9v9h-9z" fill="#cfcce0"/><path d="m47 45h-9v-9h9zm-8.5499967-.4499996h8.1000047v-8.0999989h-8.1000047z" fill="#3f3d56"/><path d="m61 37.77485h40v1h-40z" fill="#3f3d56"/><path d="m61 40.77485h40v1h-40z" fill="#3f3d56"/><path d="m61 43.77485h40v1h-40z" fill="#3f3d56"/><path d="m110 98h-77v-17h77zm-76.5470591-.441558h76.0941181v-16.1168748h-76.0941181z" fill="#3f3d56"/><path d="m39 86h9v9h-9z" fill="#cfcce0"/><path d="m47 94h-9v-9h9zm-8.5499967-.4499996h8.1000047v-8.0999989h-8.1000047z" fill="#3f3d56"/><path d="m61 86.77485h40v1h-40z" fill="#3f3d56"/><path d="m61 89.77485h40v1h-40z" fill="#3f3d56"/><path d="m61 92.77485h40v1h-40z" fill="#3f3d56"/><path d="m138 73h-77v-17h77zm-76.5470535-.441558h76.0941125v-16.1168803h-76.0941125z" fill="#3f3d56"/><path d="m122 62h9v9h-9z" fill="#cfcce0" transform="matrix(-1 0 0 -1 253 133)"/><path d="m133 69h-9v-9h9zm-8.550002-.4499997h8.10001v-8.1000006h-8.10001z" fill="#3f3d56"/><path d="m70 61.77485h40v1h-40z" fill="#3f3d56"/><path d="m70 64.77485h40v1h-40z" fill="#3f3d56"/><path d="m70 68.77485h40v1h-40z" fill="#3f3d56"/><g fill="#cfcce0"><circle cx="121.5" cy="40.5" r="3.5"/><circle cx="126.5" cy="89.5" r="3.5"/><circle cx="46.5" cy="64.5" r="3.5"/><circle cx="169" cy="50" r="1"/><path d="m32.8862018 89 .1137982-.2459975c-.0468239-.0216342-4.7238769-2.2364091-8.2650215-8.1713212-3.2701045-5.480316-6.213421-15.3463258-1.6649374-31.2250027 1.900481-6.6345101 2.7115255-12.5627591 2.4106658-17.6199391-.2458491-4.1322249-1.232302-7.7118121-2.9319272-10.6392901-3.3602298-5.7879893-8.4335085-7.086048-8.4843546-7.0984494l-.0644251.2632464c.049798.0122049 5.0190823 1.2889159 8.3186882 6.9786745 3.7856199 6.5278666 3.9507284 15.9623106.4907175 28.0411153-2.0203959 7.0533206-2.750333 13.5286674-2.1695409 19.2463732.4652888 4.5803527 1.7678032 8.6874865 3.8713747 12.2074398 3.5854267 5.9994271 8.3274665 8.2411872 8.3749623 8.2631508z"/><circle cx="18.5" cy="17.5" r="10.5"/><path d="m.79532295 19.2349761c-1.9149009-5.5433126-.30215393-11.69434395 4.08621933-15.5848769 4.38837326-3.89053294 10.68815752-4.7543934 15.96177242-2.18876448 5.273615 2.56562892 8.4825121 8.05549036 8.1303872 13.90966978-.3521249 5.8541795-4.1959267 10.9197962-9.7390462 12.8347603-7.5684201 2.6050973-15.81727438-1.4079942-18.43933275-8.9707887zm.25986185-.0897743c1.87859034 5.438209 6.84798824 9.2092597 12.5909677 9.5547143 5.7429795.3454547 11.1285569-2.8027182 13.6454421-7.9765283s1.6694198-11.3543621-2.1472238-15.65966998c-3.8166436-4.30530787-9.8508414-5.88751329-15.28885205-4.00883521-7.41908187 2.57247481-11.35590385 10.66516049-8.80033395 18.09031159z"/><circle cx="16.5" cy="43.5" r="8.5"/><circle cx="30.5" cy="71.5" r="8.5"/></g></g><g fill-rule="nonzero" transform="translate(-3 57.640766)"><path d="m122 49.359234h105v52h-105z" fill="#e6e6e6"/><path d="m109.804565 98.4022611 2.46095-.7124129c.436681-1.1357098.809236-2.2952532 1.11589-3.4731057l-1.155723-.0423396 1.260011-.3647512c.364792-1.4602282.514307-2.4504175.514307-2.4504175s-4.991158 1.4930178-8.749916 4.406653l-.463716 3.2678643-.44364-2.5126205c-.409032.3645855-.794828.7546487-1.155102 1.1678798-3.6185646 4.1784812-5.1932528 8.7527642-3.517165 10.2169742 1.676088 1.464209 5.968251-.736134 9.586813-4.914602 1.119829-1.356863 2.025959-2.878114 2.686822-4.5107539z" fill="#e6e6e6"/><path d="m15.4123854 83.3598529-1.4114338-5.6172803c-2.5026727-1.0702209-5.06317559-1.997157-7.66930959-2.7763921l-.17821435 2.6105786-.7226419-2.8760592c-3.23203241-.9312608-5.43078576-1.3414657-5.43078576-1.3414657s2.97001865 11.3961493 9.19938266 20.1086489l7.25858854 1.2865434-5.6389968.8203883c.7839265.9515635 1.6263909 1.8524326 2.5224039 2.6972722 9.061971 8.487512 19.1553235 12.381633 22.5441116 8.697745s-1.2102416-13.5507476-10.2722232-22.0382626c-2.8093037-2.6312138-6.3383829-4.7427389-9.8709742-6.4045539z" fill="#e6e6e6"/><path d="m28.8787907 77.73738 1.7063417-5.4708059c-1.6295175-2.1918395-3.3846665-4.2924179-5.257085-6.2917278l-1.5229246 2.1132338.8736594-2.8010593c-2.340495-2.4498096-4.0496773-3.9277866-4.0496773-3.9277866s-3.3685327 11.1538209-2.4797668 21.7182927l5.6778194 4.8220137-5.363885-2.2089883c.1876952 1.2071284.4531589 2.4015635.7948188 3.5762313 3.4851937 11.8321454 10.2781048 20.3153684 15.1724056 18.9478064 4.8943007-1.367562 6.036597-12.0680392 2.5514034-23.9001841-1.080445-3.668081-3.0628414-7.2676312-5.2837917-10.4891534z" fill="#e6e6e6"/><path d="m51 100.904599.6251774 2.454635 4.3748226-.27293-.3124468-2.72707z" fill="#ffb8b8"/><path d="m42 100.904599-.6248936 2.454635-4.3751064-.27293.3127306-2.72707z" fill="#ffb8b8"/><circle cx="40.5" cy="9.859234" fill="#ffb8b8" r="5.5"/><path d="m36.3998474 11.3592342-1.3998474 6.6774959 7 2.3225041-.2799695-8.4191762z" fill="#ffb8b8"/><path d="m39.7999997 18.6721452-3.7744193-2.8124624s-.72558-1.0258385-1.0255804-.1400772c-.2999977.8857614-3 4.1335645-3 4.1335645l2.1000015 24.2108113 15.8999985.2952528s-6.2129976-28.2232178-7.0064973-27.2504023-2.8934876.9727941-3.193503 1.5633133z" fill="#d0cde1"/><path d="m41.7809194 15.3592342s-1.2201877 1.1622756-.6100924 2.033981c.6100952.8717054.1525217 2.4881335.7626169 2.6242674.6100952.1361338-.6100952 10.0154605 1.2201877 12.6305767 1.8302829 2.6151161.9151415 9.2981915.9151415 10.4604644 0 1.162273 1.8302829 8.1359186 1.8302829 8.1359186s6.100944.5811352 6.100944-.8717053c0-1.4528406-2.1353292-11.6227401-2.1353292-11.6227401l1.830283-18.0152453s0-1.7434108-2.135332-2.3245486c-2.1353319-.5811378-6.4059902-2.0339783-6.4059902-2.0339783z" fill="#2f2e41"/><path d="m51 36.3211853h-1.5458774s-8.0385468.5350623-7.4201936-2.4077768c.6183532-2.9428392 6.8018432-.8025923 6.8018432-.8025923l1.8550484.8025923z" fill="#ffb8b8"/><path d="m35.3421253 15.3592342s-2.3102302 1.5270057-2.5915052 2.1164005c-.281275.5893949-6.7506201 3.8310627-6.7506201 6.1886368s1.96893 5.0098496 1.96893 5.0098496l2.5314825 25.9333341s4.2191376 1.4734858 4.5004152.2946987c.2812775-1.178787 1.40638-27.1121237.8438275-28.2909134-.5625526-1.1787898-.5625526-8.8409097-.5625526-8.8409097z" fill="#2f2e41"/><path d="m28.29535 57.3592342-.29535 1.6775652s.29535 5.5918824 2.6581584 5.312289c2.3628083-.2795934.8860528-5.8714782.8860528-5.8714782l-.2953501-1.118376z" fill="#ffb8b8"/><g fill="#2f2e41"><path d="m32 42.3592342s.2954563 26.344513 1.7727272 34.8333006c1.4772708 8.4887875 2.0681834 23.1246272 2.0681834 23.1246272s3.8409106.585432 4.4318179.878151c.5909073.292718 2.0681808-.585435 2.0681808-.585435l.2954563-43.3220853 5.6136351 19.6120235s.8863635 23.7100618 2.6590907 24.2954968c1.7727271.585434 7.0909086-.585435 7.0909086-.585435s-2.0681808-22.5391929-2.6590907-23.4173432c-.59091-.8781504-2.0681808-26.6372396-4.4318179-31.3206992l-.8863636-3.2198828s-16.8409079.5854318-18.0227278-.2927186z"/><path d="m52.0291988 101.8262s-1.459199-1.229044-1.459199-.307263c0 .921782-1.4591989 6.6061.2918388 6.6061 1.7510376 0 13.4246238 1.075401 13.1327824-1.382672-.2918413-2.458073-7.3144752-6.383131-7.3144752-6.383131s-2.6080706.852452-2.8999094 1.159703c-.2918387.307252-1.7510376.307263-1.7510376.307263z"/><path d="m40.9708039 101.8262s1.4591963-1.229044 1.4591963-.307263c0 .921782 1.4591989 6.6061-.2918388 6.6061-1.7510376 0-13.4246238 1.075401-13.1327824-1.382672.2918413-2.458073 7.3144752-6.383131 7.3144752-6.383131s2.6080706.852452 2.899912 1.159703c.2918414.307252 1.7510377.307263 1.7510377.307263z"/><path d="m50 21.3592342 2.1967075.285885 4.3934121 11.4354332s1.2552594 5.717714-.6276311 6.5753714c-1.8828905.8576573-5.4366379.6900805-5.4366379.6900805l-.5258506-6.4077997 1.5690764.2858849-1.5690764-2.858857z"/><path d="m27.6489729 22.3592342-1.4503433 1.1746049s-1.4503433 14.9761894-1.160273 16.4444442c.2900702 1.4682547 2.0304784 19.3809509 2.0304784 19.3809509l4.931165-1.1746022-3.4808217-35.5317372z"/><path d="m33.7964673 6.33923203s-1.5961575-2.08000076 0-3.12001055v.52000086s3.4203424-3.89999973 5.4725468-2.85998724l1.8241796-.52000087v.52000087l1.1401238-.52000087-.2280222.77999995h1.5961602l-.684069.52000086s5.244522-.25999908 2.0522043 3.64000065c0 0 1.5174049 2.3382825.0746335 3.63913928 0 0-1.2147467-2.85913934-2.8109068-2.07914074-.8830218.47090534-1.95232.36930011-2.7362708-.26000043 0 0-3.1923176-.25999908-2.7362734 1.30000081.4560443 1.55999989.2280221 2.07999806.2280221 2.07999806s-1.1401237.77999993-.9120885 1.30000083c.2280353.5200008.2280222 2.0800007.2280222 2.0800007s-1.1401238-1.8200016-1.5961602-1.5599999c-.4560364.2600018-2.9643033-2.34000249-.9121016-5.46000227z"/></g><ellipse cx="85.5" cy="13.359234" fill="#ffb8b8" rx="1" ry="1"/><path d="m236 94.3592342h-106v-53h106zm-105.466049-.531275h104.932098v-51.9374499h-104.932098z" fill="#3f3d56"/><path d="m183 83.8624643c-.001796 2.484432-2.016636 4.497355-4.501068 4.4967699-2.484433-.0005853-4.498324-2.0144573-4.498932-4.4988898-.000608-2.4844326 2.012296-4.4992905 4.496728-4.5011102 1.19536-.0033514 2.342732.4700094 3.187987 1.3152558.845254.8452464 1.318625 1.9926146 1.315285 3.1879743z" fill="#387ed1"/><path d="m183 83.8624643c-.001796 2.484432-2.016636 4.497355-4.501068 4.4967699-2.484433-.0005853-4.498324-2.0144573-4.498932-4.4988898-.000608-2.4844326 2.012296-4.4992905 4.496728-4.5011102 1.19536-.0033514 2.342732.4700094 3.187987 1.3152558.845254.8452464 1.318625 1.9926146 1.315285 3.1879743z" fill="#000" opacity=".3"/><path d="m191 62.901887c.008041 1.3912296-.284735 2.7684009-.859242 4.040947-.248815.5477489-.547143 1.0726378-.891424 1.5684041-.71333 1.0093304-1.569263 1.9145699-2.542245 2.6886928-.167003.1370706-.350099.2794131-.595225.4639313-.306981.2240577-.649007.4586593-1.042185.7117127-.694248.4395041-1.362332.9173906-2.001002 1.4313335-.378727.288956-.707047.6361434-.972162 1.0280296-.331248.5667342-.498245 1.6632991-.498245 3.2606989v.2635973h-7.260504v-1.2336355c0-.9647662.024262-1.7766459.07002-2.4830868.032961-.6401737.101285-1.278133.204673-1.9110806.071071-.5567101.242482-1.0966644.506266-1.5947638.476674-.7776121 1.626616-1.8346374 3.511767-3.2317032.080793-.0579914.161612-.1186188.245113-.1792462.078099-.0527195.153457-.1080749.231567-.1660663.653063-.4540286 1.254391-.9754296 1.79363-1.5552242.157549-.1805849.303255-.3707557.436243-.5693703l.035044-.0527194c.422149-.731969.629075-1.5640211.597863-2.4040076.002043-.2125168-.012354-.4248801-.043065-.6352696-.083777-.8206302-.472942-1.5824512-1.093404-2.1404261-.67325-.6040095-1.541217-.9583788-2.45342-1.0016698-.115783-.0105439-.223479-.0131799-.333941-.0131799-.429199-.002339-.857048.0472415-1.273823.1476145-.781217.1886274-1.482114.612793-2.003631 1.2125477-.276408.3193725-.511586.6708443-.700226 1.0464814-.636237 1.4366369-1.043152 2.9604387-1.206497 4.5180582l-.026957.2767771-6.834988-1.7819179v-2.9496541c.032349-.1186188.067327-.2372376.105068-.3532204.436328-1.4793252 1.131566-2.8733389 2.054782-4.1200262.394602-.5290294.839111-1.0206018 1.327666-1.4682371.115784-.1133468.242417-.2240577.368984-.3321326.822403-.6988506 1.736183-1.2874478 2.717268-1.7502863l.086197-.0395396c1.858352-.840672 3.885819-1.2622555 5.932841-1.2336513.212752 0 .463208.002636.710941.0158159 2.034226.0504778 4.030724.5487005 5.841327 1.4576932.813054.4119639 1.574838.9143628 2.270242 1.4972328 1.951226 1.5567803 3.20763 3.7951222 3.503689 6.2419847.053988.4408799.080995.8845266.080995 1.3285621z" fill="#387ed1"/><path d="m191 62.901887c.008041 1.3912296-.284735 2.7684009-.859242 4.040947-.248815.5477489-.547143 1.0726378-.891424 1.5684041-.71333 1.0093304-1.569263 1.9145699-2.542245 2.6886928-.167003.1370706-.350099.2794131-.595225.4639313-.306981.2240577-.649007.4586593-1.042185.7117127-.694248.4395041-1.362332.9173906-2.001002 1.4313335-.378727.288956-.707047.6361434-.972162 1.0280296-.331248.5667342-.498245 1.6632991-.498245 3.2606989v.2635973h-7.260504v-1.2336355c0-.9647662.024262-1.7766459.07002-2.4830868.032961-.6401737.101285-1.278133.204673-1.9110806.071071-.5567101.242482-1.0966644.506266-1.5947638.476674-.7776121 1.626616-1.8346374 3.511767-3.2317032.080793-.0579914.161612-.1186188.245113-.1792462.078099-.0527195.153457-.1080749.231567-.1660663.653063-.4540286 1.254391-.9754296 1.79363-1.5552242.157549-.1805849.303255-.3707557.436243-.5693703l.035044-.0527194c.422149-.731969.629075-1.5640211.597863-2.4040076.002043-.2125168-.012354-.4248801-.043065-.6352696-.083777-.8206302-.472942-1.5824512-1.093404-2.1404261-.67325-.6040095-1.541217-.9583788-2.45342-1.0016698-.115783-.0105439-.223479-.0131799-.333941-.0131799-.429199-.002339-.857048.0472415-1.273823.1476145-.781217.1886274-1.482114.612793-2.003631 1.2125477-.276408.3193725-.511586.6708443-.700226 1.0464814-.636237 1.4366369-1.043152 2.9604387-1.206497 4.5180582l-.026957.2767771-6.834988-1.7819179v-2.9496541c.032349-.1186188.067327-.2372376.105068-.3532204.436328-1.4793252 1.131566-2.8733389 2.054782-4.1200262.394602-.5290294.839111-1.0206018 1.327666-1.4682371.115784-.1133468.242417-.2240577.368984-.3321326.822403-.6988506 1.736183-1.2874478 2.717268-1.7502863l.086197-.0395396c1.858352-.840672 3.885819-1.2622555 5.932841-1.2336513.212752 0 .463208.002636.710941.0158159 2.034226.0504778 4.030724.5487005 5.841327 1.4576932.813054.4119639 1.574838.9143628 2.270242 1.4972328 1.951226 1.5567803 3.20763 3.7951222 3.503689 6.2419847.053988.4408799.080995.8845266.080995 1.3285621z" fill="#000" opacity=".3"/><path d="m180 83.8624643c-.001796 2.484432-2.016636 4.497355-4.501068 4.4967699-2.484433-.0005853-4.498324-2.0144573-4.498932-4.4988898-.000608-2.4844326 2.012296-4.4992905 4.496728-4.5011102 1.19536-.0033514 2.342732.4700094 3.187987 1.3152558.845254.8452464 1.318625 1.9926146 1.315285 3.1879743z" fill="#387ed1"/><path d="m188 62.901887c.007858 1.3912296-.278261 2.7684009-.839705 4.040947-.243157.5477489-.534702 1.0726378-.871154 1.5684041-.697111 1.0093304-1.533581 1.9145699-2.484439 2.6886928-.163205.1370706-.342139.2794131-.581691.4639313-.300001.2240577-.63425.4586593-1.018487.7117127-.678462.4395041-1.331356.9173906-1.955503 1.4313335-.370116.288956-.69097.6361434-.950057 1.0280296-.323716.5667342-.486916 1.6632991-.486916 3.2606989v.2635973h-7.095414v-1.2336355c0-.9647662.02371-1.7766459.068428-2.4830868.032211-.6401737.098982-1.278133.200019-1.9110806.069455-.5567101.236969-1.0966644.494754-1.5947638.465836-.7776121 1.58963-1.8346374 3.431917-3.2317032.078955-.0579914.157936-.1186188.239539-.1792462.076324-.0527195.149968-.1080749.226301-.1660663.638214-.4540286 1.22587-.9754296 1.752847-1.5552242.153967-.1805849.29636-.3707557.426323-.5693703l.034248-.0527194c.412549-.731969.614771-1.5640211.584268-2.4040076.001997-.2125168-.012072-.4248801-.042086-.6352696-.081871-.8206302-.462187-1.5824512-1.068541-2.1404261-.657942-.6040095-1.506173-.9583788-2.397634-1.0016698-.11315-.0105439-.218398-.0131799-.326348-.0131799-.419439-.002339-.837561.0472415-1.244859.1476145-.763453.1886274-1.448413.612793-1.958072 1.2125477-.270123.3193725-.499954.6708443-.684304 1.0464814-.473744.9463144-.781656 2.2010377-.915879 3.7272662l-.026345.2767772-7.51121-1.0728412.036817-.2609613c.131976-1.002149.344097-1.9920638.634315-2.960198.426407-1.4793252 1.105836-2.8733389 2.008061-4.1200262.385629-.5290294.82003-1.0206018 1.297477-1.4682371.113151-.1133468.236905-.2240577.360594-.3321326.803703-.6988506 1.696705-1.2874478 2.655482-1.7502863l.084237-.0395396c1.816096-.840672 3.797463-1.2622555 5.797939-1.2336513.207915 0 .452676.002636.694776.0158159 1.987972.0504778 3.939073.5487005 5.708507 1.4576932.794566.4119639 1.539028.9143628 2.21862 1.4972328 1.906859 1.5567803 3.134694 3.7951222 3.424022 6.2419847.05276.4408799.079153.8845266.079153 1.3285621z" fill="#387ed1"/></g><path d="m201.5-3.5 52 47" stroke="#da0e0e" stroke-linecap="square" stroke-width="17"/><text fill="#fff" font-family="SourceSansPro-Bold, Source Sans Pro" font-size="16" font-weight="bold" transform="matrix(.7193398 .69465837 -.69465837 .7193398 78.609416 -153.126452)"><tspan x="210.869342" y="26.71934">BETA</tspan></text></g></svg>